<mxfile host="app.diagrams.net" agent="Mozilla/5.0 (Windows NT 10.0; Win64; x64) AppleWebKit/537.36 (KHTML, like Gecko) Chrome/133.0.0.0 Safari/537.36" version="24.9.0">
  <diagram name="PÃ¡gina-1" id="7MUT0M8c6YnoPc0MywsI">
    <mxGraphModel dx="1114" dy="593" grid="1" gridSize="10" guides="1" tooltips="1" connect="1" arrows="1" fold="1" page="1" pageScale="1" pageWidth="827" pageHeight="1169" math="0" shadow="0">
      <root>
        <mxCell id="0" />
        <mxCell id="1" parent="0" />
        <mxCell id="Cq-unNbXGSCTS38JwupL-23" style="edgeStyle=orthogonalEdgeStyle;rounded=0;orthogonalLoop=1;jettySize=auto;html=1;entryX=0.5;entryY=0;entryDx=0;entryDy=0;endArrow=none;endFill=0;" edge="1" parent="1" source="Cq-unNbXGSCTS38JwupL-3" target="Cq-unNbXGSCTS38JwupL-11">
          <mxGeometry relative="1" as="geometry" />
        </mxCell>
        <mxCell id="Cq-unNbXGSCTS38JwupL-3" value="PSO MAIN" style="swimlane;fontStyle=0;childLayout=stackLayout;horizontal=1;startSize=30;horizontalStack=0;resizeParent=1;resizeParentMax=0;resizeLast=0;collapsible=1;marginBottom=0;whiteSpace=wrap;html=1;" vertex="1" parent="1">
          <mxGeometry x="344" y="10" width="140" height="60" as="geometry" />
        </mxCell>
        <mxCell id="Cq-unNbXGSCTS38JwupL-27" style="edgeStyle=orthogonalEdgeStyle;rounded=0;orthogonalLoop=1;jettySize=auto;html=1;exitX=1;exitY=0.5;exitDx=0;exitDy=0;entryX=0;entryY=0.5;entryDx=0;entryDy=0;strokeColor=default;endArrow=none;endFill=0;" edge="1" parent="1">
          <mxGeometry relative="1" as="geometry">
            <mxPoint x="319" y="360" as="sourcePoint" />
            <mxPoint x="509" y="360" as="targetPoint" />
          </mxGeometry>
        </mxCell>
        <mxCell id="Cq-unNbXGSCTS38JwupL-7" value="Particle Management" style="swimlane;fontStyle=0;childLayout=stackLayout;horizontal=1;startSize=30;horizontalStack=0;resizeParent=1;resizeParentMax=0;resizeLast=0;collapsible=1;marginBottom=0;whiteSpace=wrap;html=1;" vertex="1" parent="1">
          <mxGeometry x="180" y="320" width="140" height="60" as="geometry" />
        </mxCell>
        <mxCell id="Cq-unNbXGSCTS38JwupL-11" value="PSO ALGORITHM" style="swimlane;fontStyle=0;childLayout=stackLayout;horizontal=1;startSize=30;horizontalStack=0;resizeParent=1;resizeParentMax=0;resizeLast=0;collapsible=1;marginBottom=0;whiteSpace=wrap;html=1;" vertex="1" parent="1">
          <mxGeometry x="344" y="170" width="140" height="60" as="geometry" />
        </mxCell>
        <mxCell id="Cq-unNbXGSCTS38JwupL-15" value="Objective Functions" style="swimlane;fontStyle=0;childLayout=stackLayout;horizontal=1;startSize=30;horizontalStack=0;resizeParent=1;resizeParentMax=0;resizeLast=0;collapsible=1;marginBottom=0;whiteSpace=wrap;html=1;" vertex="1" parent="1">
          <mxGeometry x="510" y="320" width="140" height="60" as="geometry" />
        </mxCell>
        <mxCell id="Cq-unNbXGSCTS38JwupL-24" style="edgeStyle=orthogonalEdgeStyle;rounded=0;orthogonalLoop=1;jettySize=auto;html=1;exitX=0;exitY=0.75;exitDx=0;exitDy=0;entryX=0.5;entryY=0;entryDx=0;entryDy=0;endArrow=none;endFill=0;" edge="1" parent="1" source="Cq-unNbXGSCTS38JwupL-11" target="Cq-unNbXGSCTS38JwupL-7">
          <mxGeometry relative="1" as="geometry">
            <mxPoint x="344" y="245" as="sourcePoint" />
          </mxGeometry>
        </mxCell>
        <mxCell id="Cq-unNbXGSCTS38JwupL-25" style="edgeStyle=orthogonalEdgeStyle;rounded=0;orthogonalLoop=1;jettySize=auto;html=1;exitX=1;exitY=0.75;exitDx=0;exitDy=0;entryX=0.5;entryY=0;entryDx=0;entryDy=0;endArrow=none;endFill=0;" edge="1" parent="1" source="Cq-unNbXGSCTS38JwupL-11" target="Cq-unNbXGSCTS38JwupL-15">
          <mxGeometry relative="1" as="geometry">
            <mxPoint x="484" y="245" as="sourcePoint" />
          </mxGeometry>
        </mxCell>
      </root>
    </mxGraphModel>
  </diagram>
</mxfile>
